<?xml version="1.0" encoding="UTF-8"?>
<svg version="1.1" xmlns="http://www.w3.org/2000/svg" width="1440" height="522" viewBox="0 40 1320 720">
<defs>
<mask id="letter-cutouts" maskUnits="userSpaceOnUse">
<rect x="0" y="0" width="1320" height="1000" fill="white"/>
<path d="M0 0 C9.1265625 -0.0928125 9.1265625 -0.0928125 18.4375 -0.1875 C20.33943115 -0.21481201 22.2413623 -0.24212402 24.20092773 -0.27026367 C25.73680998 -0.27903924 27.2726993 -0.28668063 28.80859375 -0.29296875 C29.58303833 -0.30831665 30.35748291 -0.32366455 31.15539551 -0.33947754 C38.19604307 -0.34279078 44.45823105 0.93481273 50 5.4375 C53.42786309 9.82944958 53.18421443 13.8819046 53.25 19.375 C53.27578125 20.66148437 53.3015625 21.94796875 53.328125 23.2734375 C52.88377841 28.31994515 51.33730225 31.58403291 47.875 35.25 C41.62395996 39.0549809 34.40558492 39.29548937 27.24609375 39.1953125 C26.54746216 39.19329834 25.84883057 39.19128418 25.12902832 39.18920898 C22.56511698 39.17889031 20.00130058 39.1509701 17.4375 39.125 C8.8059375 39.063125 8.8059375 39.063125 0 39 C0 26.13 0 13.26 0 0 Z " fill="black" transform="translate(528,455)"/>
<path d="M0 0 C0.66502543 20.29559102 0.66502543 20.29559102 -5.875 27.375 C-10.69296892 32.08765812 -16.04058992 32.3638846 -22.4375 32.375 C-23.17548828 32.39949219 -23.91347656 32.42398438 -24.67382812 32.44921875 C-29.88953222 32.47703584 -32.91490925 31.51206897 -37 28 C-39.71870271 23.99307479 -39.87496364 19.67435533 -39 15 C-36.82171721 10.68484663 -33.69336708 7.950658 -29.1875 6.25 C-23.90523516 4.77818946 -18.44102526 3.93819048 -13.02807617 3.08886719 C-8.70239359 2.39517691 -4.24549449 0 0 0 Z " fill="black" transform="translate(916,521)"/>
<path d="M0 0 C6.59760174 4.21123516 9.19221403 9.42560865 10.9375 16.875 C10.9375 17.865 10.9375 18.855 10.9375 19.875 C-3.5825 19.875 -18.1025 19.875 -33.0625 19.875 C-31.98224257 11.23294058 -30.75211086 6.75289647 -23.9375 1.4375 C-17.13171702 -2.2612951 -7.32299166 -2.76032945 0 0 Z " fill="black" transform="translate(689.0625,489.125)"/>
<path d="M0 0 C3.47914941 -0.02887814 6.95826831 -0.04675687 10.4375 -0.0625 C11.92733398 -0.07506836 11.92733398 -0.07506836 13.44726562 -0.08789062 C14.39150391 -0.09111328 15.33574219 -0.09433594 16.30859375 -0.09765625 C17.62041626 -0.10551147 17.62041626 -0.10551147 18.95874023 -0.11352539 C21 0 21 0 22 1 C22.125 4.5 22.125 4.5 22 8 C21 9 21 9 18.95874023 9.11352539 C18.08419189 9.10828857 17.20964355 9.10305176 16.30859375 9.09765625 C15.36435547 9.09443359 14.42011719 9.09121094 13.44726562 9.08789062 C12.45404297 9.07951172 11.46082031 9.07113281 10.4375 9.0625 C9.44041016 9.05798828 8.44332031 9.05347656 7.41601562 9.04882812 C4.94395151 9.03700007 2.47200482 9.02051849 0 9 C0 6.03 0 3.06 0 0 Z " fill="black" transform="translate(314,560)"/>
</mask>
</defs>
<g transform="translate(-40,-26) scale(1.06)">
<path d="M0 0 C435.6 0 871.2 0 1320 0 C1320 330 1320 660 1320 1000 C884.4 1000 448.8 1000 0 1000 C0 670 0 340 0 0 Z " fill="none" transform="translate(0,0)"/>
<path d="M0 0 C71.28 0 142.56 0 216 0 C216 46.53 216 93.06 216 141 C144.72 141 73.44 141 0 141 C0 94.47 0 47.94 0 0 Z " fill="none" stroke="#FFFFFF" stroke-width="8" transform="translate(215,403)"/>
<rect x="228" y="416" width="190" height="115" rx="8" fill="none" stroke="#60BEBD" stroke-width="10"/>
<rect x="300" y="536" width="46" height="22" rx="6" fill="none" stroke="#60BEBD" stroke-width="6"/>
<rect x="264" y="562" width="118" height="14" rx="7" fill="none" stroke="#60BEBD" stroke-width="6"/>
<path d="M0 0 C0.8319378 -0.00644889 1.6638756 -0.01289778 2.52102363 -0.0195421 C3.4349202 -0.01644489 4.34881677 -0.01334769 5.29040718 -0.01015663 C6.26132809 -0.01468774 7.232249 -0.01921886 8.23259175 -0.02388728 C11.50070079 -0.03659327 14.76864451 -0.03490692 18.03677559 -0.03325844 C20.37390547 -0.03923981 22.71103337 -0.04604444 25.04815865 -0.05361366 C31.40762855 -0.07132049 37.76704468 -0.07597101 44.12653685 -0.07724524 C49.42991238 -0.07914138 54.73327531 -0.08649561 60.03664601 -0.09358943 C71.83076285 -0.10924121 83.62485632 -0.11492575 95.41898261 -0.11357872 C96.48082529 -0.11345885 96.48082529 -0.11345885 97.56411934 -0.11333656 C98.2728776 -0.1132548 98.98163586 -0.11317304 99.71187164 -0.1130888 C111.19937694 -0.11227583 122.68675114 -0.13141531 134.17421852 -0.1596133 C145.9660264 -0.18833021 157.75777032 -0.20215425 169.54961407 -0.20042574 C176.17122723 -0.19976142 182.79271954 -0.2056598 189.41430473 -0.22678185 C195.64085907 -0.24610064 201.86712265 -0.24633217 208.09368706 -0.23174858 C210.38142507 -0.22965149 212.66918098 -0.23441457 214.9568882 -0.2464695 C218.07540508 -0.26184034 221.19290916 -0.25266742 224.31140327 -0.23720741 C225.2208384 -0.24749454 226.13027353 -0.25778167 227.0672673 -0.26838052 C231.22281583 -0.22272456 233.37130649 -0.09184494 236.96641922 2.16317368 C240.20339727 5.61902133 240.05623866 7.74762295 240.06833076 12.40427208 C240.07404091 13.71648232 240.07975105 15.02869255 240.08563423 16.38066673 C240.08687968 17.84360304 240.08800476 19.30653945 240.08902168 20.76947594 C240.09364891 22.30357038 240.09867344 23.83766366 240.10406685 25.3717556 C240.11720599 29.54766053 240.12363927 33.72354938 240.12807751 37.89947176 C240.13100706 40.50901348 240.13511174 43.11855078 240.13958168 45.72809029 C240.15326338 53.89411656 240.16292556 62.06013277 240.16678357 70.22616971 C240.17125985 79.64923737 240.1887849 89.07215965 240.21778417 98.49518311 C240.23942162 105.77936764 240.24948903 113.06351134 240.25082469 120.34772766 C240.25187166 124.69747493 240.25775578 129.04708568 240.2756443 133.39679909 C240.29215968 137.4925943 240.29426374 141.58815089 240.28550529 145.68396759 C240.28473665 147.18351888 240.28905482 148.68308318 240.29896355 150.18260193 C240.38904027 164.66956226 240.38904027 164.66956226 236.92788887 171.25726891 C233.00365333 173.87342593 229.69250828 173.52283805 225.1420002 173.48431969 C224.24423363 173.48461174 223.34646706 173.48490379 222.42149544 173.4852047 C219.45087238 173.48381016 216.48049942 173.46824305 213.50992012 173.45258141 C211.45154647 173.44885172 209.39317105 173.44600454 207.334795 173.44400597 C201.9145436 173.43636603 196.49439922 173.4167144 191.07419014 173.39459801 C185.54431799 173.37414737 180.01442856 173.36500592 174.4845295 173.35492516 C163.63226891 173.33346889 152.78008779 173.29932855 141.92788887 173.25726891 C141.92788887 176.22726891 141.92788887 179.19726891 141.92788887 182.25726891 C143.30339912 182.21799278 143.30339912 182.21799278 144.70669746 182.1779232 C148.15477821 182.09199311 151.60169882 182.0296836 155.05044746 181.9826107 C156.53435566 181.95768053 158.01814382 181.92372265 159.50161934 181.88007164 C169.96636823 181.58017155 178.0627582 182.29446603 186.36538887 189.31976891 C187.13882637 190.27883141 187.13882637 190.27883141 187.92788887 191.25726891 C188.73226387 192.21633141 188.73226387 192.21633141 189.55288887 193.19476891 C194.21482666 200.1876756 193.58389591 208.19658246 192.92788887 216.25726891 C191.82250707 220.27055852 190.03594891 222.47961901 186.58862495 224.89899254 C181.08802749 226.93992949 175.80333678 226.69108306 169.98111153 226.67719078 C168.67635368 226.68566032 167.37159584 226.69412987 166.02729988 226.70285606 C162.45899273 226.7250212 158.89091684 226.72800526 155.3225503 226.72610855 C152.33810336 226.72598861 149.353705 226.73456245 146.36927164 226.74288607 C139.32497548 226.76210241 132.28079781 226.76501055 125.23648262 226.75824547 C117.98247718 226.75160687 110.7289805 226.77446532 103.47507823 226.8115592 C97.23536371 226.84230275 90.99581246 226.85361119 84.75602376 226.84972239 C81.03445561 226.84765954 77.3132834 226.85306139 73.59178734 226.87761497 C69.43866994 226.90411252 65.28661988 226.89011898 61.13345528 226.87250328 C59.90929405 226.88576653 58.68513283 226.89902977 57.42387581 226.91269493 C50.41752962 226.84369987 45.22027408 226.13526629 39.92788887 221.25726891 C36.31763988 215.84189542 36.26363357 209.6151411 36.92788887 203.25726891 C39.15624332 195.12243278 44.22814498 188.82960328 51.06851387 184.07367516 C57.87436018 180.8304361 66.03804456 181.57273312 73.42788887 181.50726891 C75.02948319 181.4790741 76.63104792 181.44914183 78.23257637 181.41742516 C82.13096047 181.34397376 86.02899427 181.2941469 89.92788887 181.25726891 C89.92788887 178.94726891 89.92788887 176.63726891 89.92788887 174.25726891 C88.77388084 174.25140266 87.61987282 174.24553642 86.43089485 174.23949242 C75.557084 174.18228711 64.68347356 174.10953683 53.80986691 174.02155399 C48.21958354 173.97682067 42.62937355 173.93757095 37.03897285 173.91083336 C31.64423038 173.88483013 26.24976984 173.84444855 20.85520172 173.79408264 C18.7967568 173.77739381 16.7382631 173.76589211 14.67975998 173.759655 C11.79708084 173.75003598 8.91512628 173.72200266 6.0326252 173.68964195 C5.18098289 173.69107704 4.32934059 173.69251213 3.45189095 173.69399071 C-1.17183064 173.62055055 -4.38068514 173.35084054 -8.07211113 170.25726891 C-10.32956275 166.80176885 -10.32562092 163.84271976 -10.33280754 159.77364159 C-10.33663309 159.12446689 -10.34045864 158.4752922 -10.34440011 157.80644554 C-10.35471141 155.63315108 -10.35074161 153.46012174 -10.34676933 151.28680992 C-10.35111684 149.72784747 -10.35630013 148.16888717 -10.362257 146.60993004 C-10.37565392 142.37647107 -10.37622492 138.14310133 -10.3736937 133.90962529 C-10.37262448 130.37575178 -10.3775061 126.84189637 -10.38229913 123.30802673 C-10.39339666 114.97135087 -10.3938303 106.63472007 -10.38778496 98.29804039 C-10.38174367 89.69677284 -10.39405951 81.09566882 -10.41535503 72.49442917 C-10.43296576 65.11003214 -10.43897323 57.72568717 -10.43571728 50.34126991 C-10.43390347 45.93073801 -10.43655037 41.52032277 -10.45043182 37.10980988 C-10.46299702 32.96227466 -10.46107857 28.81499455 -10.44802094 24.6674633 C-10.44565276 23.14569259 -10.4483985 21.623904 -10.45664406 20.10215378 C-10.4670933 18.0237659 -10.45902664 15.94623686 -10.44633293 13.86787987 C-10.44650067 12.70516343 -10.44666842 11.54244699 -10.44684124 10.34449673 C-10.02606943 6.87795269 -9.16034754 5.03282762 -7.07211113 2.25726891 C-4.01894273 0.22182331 -3.4296216 0.00671891 0 0 Z M6.92788887 16.25726891 C6.92788887 62.78726891 6.92788887 109.31726891 6.92788887 157.25726891 C78.20788887 157.25726891 149.48788887 157.25726891 222.92788887 157.25726891 C222.92788887 110.72726891 222.92788887 64.19726891 222.92788887 16.25726891 C151.64788887 16.25726891 80.36788887 16.25726891 6.92788887 16.25726891 Z " fill="none" transform="translate(208.07211112976074,386.74273109436035)"/>
<g mask="url(#letter-cutouts)">
<path d="M0 0 C13.096875 -0.0825 26.19375 -0.165 39.6875 -0.25 C43.79791748 -0.28641602 47.90833496 -0.32283203 52.14331055 -0.36035156 C57.22619629 -0.37841797 57.22619629 -0.37841797 59.61799622 -0.3817749 C61.26163588 -0.38785179 62.90525956 -0.40178156 64.54878235 -0.42230225 C79.79910664 -0.60292461 92.44390403 0.8764845 103.8984375 11.8125 C108.52734435 16.65625063 110.91239906 21.68107887 113 28 C113.495 29.485 113.495 29.485 114 31 C114.85113314 43.58694965 113.37929751 54.19603446 105 64 C101.31602785 67.31486511 97.46632784 69.86608781 93 72 C93.65226563 72.32871094 94.30453125 72.65742188 94.9765625 72.99609375 C102.60798813 77.14948026 106.92618733 81.4643898 109.9921875 89.6484375 C111.88784318 96.23809772 112.35672677 102.75182359 112.65966797 109.55810547 C113.0849381 118.98810046 114.4032932 127.91152622 117 137 C107.1 137 97.2 137 87 137 C85.30607163 128.53035815 83.83880475 120.21957824 83 111.625 C81.98067111 98.5524279 81.98067111 98.5524279 75.52368164 87.76074219 C67.11893005 83.55463758 57.60631292 84.32612519 48.4375 84.25 C42.353125 84.1675 36.26875 84.085 30 84 C30 101.49 30 118.98 30 137 C20.1 137 10.2 137 0 137 C0 91.79 0 46.58 0 0 Z " fill="#F8E1D7" transform="translate(498,432)"/>
<path d="M0 0 C5.44206574 4.77480609 9.6392412 9.72554416 10.26501465 17.14002991 C10.27595154 18.90775002 10.27595154 18.90775002 10.28710938 20.71118164 C10.29394241 21.36563263 10.30077545 22.02008362 10.30781555 22.69436646 C10.32135661 24.10967161 10.33043997 25.52502503 10.33552551 26.94038582 C10.34386643 29.19158178 10.36442381 31.44238202 10.38806152 33.69346619 C10.4361827 38.4830846 10.46911773 43.27274357 10.5 48.0625 C10.53586407 53.59365998 10.57819728 59.12462886 10.63594055 64.65560722 C10.65573767 66.85328278 10.66427609 69.05080514 10.67224121 71.24855042 C10.68524182 72.62672445 10.69876614 74.00489367 10.71289062 75.38305664 C10.72382751 77.15913048 10.72382751 77.15913048 10.73498535 78.97108459 C11.08916236 84.35550088 12.11289447 89.67736683 13 95 C4.09 95 -4.82 95 -14 95 C-14.99 92.36 -15.98 89.72 -17 87 C-18.051875 87.9075 -19.10375 88.815 -20.1875 89.75 C-25.56156344 93.81659899 -31.55348534 95.33720852 -38 97 C-38.96679688 97.29003906 -38.96679688 97.29003906 -39.953125 97.5859375 C-49.59747693 99.53689419 -60.27009099 98.52978495 -69 94 C-76.16149731 89.13652119 -81.30551076 83.64069333 -83 75 C-83.97689662 64.8057965 -83.31550972 56.92039443 -76.9375 48.8125 C-68.52981882 39.8419615 -56.04915454 37.16427503 -44.1875 36.5625 C-36.2137624 36.11902182 -26.03354765 35.17436921 -19.59765625 30.109375 C-17.5736932 27.43714995 -17.49106294 25.26353551 -17.6875 21.9609375 C-18.16781233 18.9469776 -18.97057752 17.29128344 -21 15 C-27.38416828 11.06083234 -34.9364466 10.83357431 -42.1875 12.50390625 C-46.30230587 14.05582657 -48.7490931 16.27734627 -51 20 C-51.33 21.98 -51.66 23.96 -52 26 C-61.24 26 -70.48 26 -80 26 C-78.72021376 14.48192385 -75.90607884 8.18033346 -67 1 C-49.05487223 -10.66131199 -18.33354509 -10.99482834 0 0 Z " fill="#F7E1D7" transform="translate(933,474)"/>
<path d="M0 0 C10.69762227 7.82476258 16.43375123 19.58720572 19.3984375 32.3046875 C20.2109375 37.6171875 20.2109375 37.6171875 20.2109375 50.6171875 C-3.5490625 50.6171875 -27.3090625 50.6171875 -51.7890625 50.6171875 C-49.28406248 63.0145334 -49.28406248 63.0145334 -41.7265625 71.9921875 C-34.66455008 75.89883267 -25.45387323 75.95599418 -17.75390625 73.74609375 C-13.36946588 71.72911892 -11.09791416 70.18342007 -8.78515625 65.9609375 C-7.03050208 63.38349279 -6.2381195 62.71328968 -3.14355469 62.05102539 C0.10433206 61.92770415 3.27795645 62.00707571 6.5234375 62.1796875 C7.64556641 62.21126953 8.76769531 62.24285156 9.92382812 62.27539062 C12.68886922 62.35775355 15.44856052 62.47270175 18.2109375 62.6171875 C14.89553618 73.55801186 8.82609011 83.99150514 -1.20703125 90.0859375 C-9.81155688 94.56393571 -17.41723198 95.9610494 -27.0390625 95.9296875 C-28.01230469 95.94580078 -28.98554687 95.96191406 -29.98828125 95.97851562 C-43.13835348 95.98724741 -55.40541894 91.99188534 -65.1015625 82.8671875 C-69.12093547 78.52725104 -72.15361819 73.90367047 -74.7890625 68.6171875 C-75.20414063 67.80507813 -75.61921875 66.99296875 -76.046875 66.15625 C-80.92489859 54.52403991 -80.87224333 37.73924314 -77.1640625 25.7421875 C-74.92789571 20.3801115 -72.09113506 15.39146874 -68.7890625 10.6171875 C-68.34949219 9.98039062 -67.90992188 9.34359375 -67.45703125 8.6875 C-51.62522194 -11.84366482 -20.55970185 -13.37378664 0 0 Z " fill="#F7E0D6" transform="translate(707.7890625,475.3828125)"/>
<path d="M0 0 C7.84364917 6.87347034 10.54659859 13.0993512 11.86328125 23.6328125 C3.28328125 23.6328125 -5.29671875 23.6328125 -14.13671875 23.6328125 C-15.45671875 20.6628125 -16.77671875 17.6928125 -18.13671875 14.6328125 C-24.7915193 10.1962788 -32.33080347 9.84075701 -40.13671875 10.6328125 C-42.99197611 11.81134274 -44.94508374 13.44117749 -47.13671875 15.6328125 C-47.6678192 19.52754915 -47.51413126 21.12566444 -45.13671875 24.3203125 C-37.24488583 30.40360038 -26.25916866 31.62243265 -16.75390625 33.76367188 C-5.10286174 36.53742922 6.00270853 40.21983967 12.86328125 50.6328125 C15.61774407 58.89620096 15.03044168 69.41664832 11.36328125 77.2578125 C5.7320091 86.88504591 -1.98954072 91.34664711 -12.35839844 94.66333008 C-18.47994031 96.23406171 -24.53495526 96.00166163 -30.82421875 96.0078125 C-32.12294922 96.03230469 -33.42167969 96.05679688 -34.75976562 96.08203125 C-47.84813694 96.12147386 -59.15100318 93.06470887 -68.8828125 84.0078125 C-75.31009816 77.08365438 -77.13671875 71.0744062 -77.13671875 61.6328125 C-68.55671875 61.6328125 -59.97671875 61.6328125 -51.13671875 61.6328125 C-50.14671875 64.6028125 -49.15671875 67.5728125 -48.13671875 70.6328125 C-45.83603856 73.12491771 -45.83603856 73.12491771 -43.13671875 74.6328125 C-42.58371094 74.98601562 -42.03070312 75.33921875 -41.4609375 75.703125 C-35.50548738 78.08530505 -26.2923141 77.78030172 -20.34375 75.6171875 C-16.91981385 73.54661045 -15.42707417 72.50387875 -14.13671875 68.6328125 C-13.63664081 65.17495235 -13.63664081 65.17495235 -14.13671875 61.6328125 C-21.65293404 54.37719591 -32.95764267 52.53877328 -42.88671875 50.5703125 C-54.67754115 48.21609688 -65.6030504 45.06867935 -73.13671875 34.9453125 C-76.05067628 28.20678571 -76.30829072 20.09817537 -74.453125 13.02734375 C-73.50760812 10.74790265 -72.44368461 8.72477987 -71.13671875 6.6328125 C-70.74742187 6.00761719 -70.358125 5.38242187 -69.95703125 4.73828125 C-64.56111101 -2.58931458 -55.74211805 -6.16387258 -47.01171875 -7.7421875 C-31.09802867 -9.56959689 -13.45577771 -10.08549817 0 0 Z " fill="#F7E0D6" transform="translate(1037.13671875,475.3671875)"/>
<path d="M0 0 C8.35282262 7.56751451 10.89542839 15.95428388 12 27 C3.09 27 -5.82 27 -15 27 C-15.99 24.03 -16.98 21.06 -18 18 C-21.0043885 14.2840458 -23.49524082 12.45499274 -28 11 C-34.03531409 10.39293917 -39.87096082 10.08755464 -45.5 12.5 C-53.17548537 20.17548537 -57.30794328 27.97855499 -57.4675293 38.98999023 C-57.45266479 40.17057007 -57.45266479 40.17057007 -57.4375 41.375 C-57.43210205 42.20136963 -57.4267041 43.02773926 -57.42114258 43.87915039 C-57.23677886 51.317097 -55.94441346 58.11393641 -51.36328125 64.16015625 C-50 66 -50 66 -50 68 C-43.40472639 71.55130118 -37.43911769 72.75571989 -30 72 C-24.76206983 70.36851355 -21.35705041 68.35509243 -18 64 C-16.68 60.37 -15.36 56.74 -14 53 C-5.42 53 3.16 53 12 53 C12 64.46384277 7.43988181 73.73450514 -0.6015625 81.8828125 C-11.53457019 91.53377369 -25.14708482 94.76918661 -39.49609375 94.3203125 C-53.33687148 93.05504631 -64.50095283 87.02494597 -74 77 C-79.00133289 70.96834961 -81.63181815 64.40815862 -84 57 C-84.33 56.01 -84.66 55.02 -85 54 C-86.40469056 35.45033456 -85.03868192 19.56387614 -73.10546875 4.62890625 C-54.94477098 -15.35123063 -20.74377579 -16.88114168 0 0 Z " fill="#F7E0D6" transform="translate(826,478)"/>
<path d="M0 0 C8.91 0 17.82 0 27 0 C27 9.9 27 19.8 27 30 C33.6 30 40.2 30 47 30 C47 35.94 47 41.88 47 48 C40.4 48 33.8 48 27 48 C27.06878286 55.75992258 27.15670556 63.51930151 27.26245117 71.27880859 C27.29572603 73.91904681 27.32374988 76.5593566 27.34643555 79.19970703 C27.37993357 82.99282361 27.43224898 86.78528272 27.48828125 90.578125 C27.49467117 91.76053772 27.5010611 92.94295044 27.50764465 94.16119385 C27.53733589 95.8124527 27.53733589 95.8124527 27.56762695 97.49707031 C27.58428154 98.94935028 27.58428154 98.94935028 27.60127258 100.43096924 C28.06955298 103.44813509 28.89060432 104.8168091 31 107 C36.16391829 108.7213061 41.59291236 108.05353552 47 108 C47 114.93 47 121.86 47 129 C42.2590649 130.5803117 37.46613092 130.26762532 32.5 130.3125 C31.46101563 130.34150391 30.42203125 130.37050781 29.3515625 130.40039062 C20.75561873 130.4700585 12.53944534 128.93696413 5.5 123.6875 C-1.25678368 116.42395755 -0.39769554 108.20973457 -0.29296875 98.87890625 C-0.28736618 97.40917903 -0.28309921 95.93944616 -0.28010559 94.4697113 C-0.26870869 90.62106574 -0.23928682 86.77276549 -0.20599365 82.92425537 C-0.17518083 78.98926462 -0.16157641 75.05421751 -0.14648438 71.11914062 C-0.11441132 63.41258555 -0.06168651 55.70638536 0 48 C-5.61 48 -11.22 48 -17 48 C-17 42.06 -17 36.12 -17 30 C-11.39 30 -5.78 30 0 30 C0 20.1 0 10.2 0 0 Z " fill="#F9E2D8" transform="translate(1075,440)"/>
</g>
<path d="M0 0 C9.1265625 -0.0928125 9.1265625 -0.0928125 18.4375 -0.1875 C20.33943115 -0.21481201 22.2413623 -0.24212402 24.20092773 -0.27026367 C25.73680998 -0.27903924 27.2726993 -0.28668063 28.80859375 -0.29296875 C29.58303833 -0.30831665 30.35748291 -0.32366455 31.15539551 -0.33947754 C38.19604307 -0.34279078 44.45823105 0.93481273 50 5.4375 C53.42786309 9.82944958 53.18421443 13.8819046 53.25 19.375 C53.27578125 20.66148437 53.3015625 21.94796875 53.328125 23.2734375 C52.88377841 28.31994515 51.33730225 31.58403291 47.875 35.25 C41.62395996 39.0549809 34.40558492 39.29548937 27.24609375 39.1953125 C26.54746216 39.19329834 25.84883057 39.19128418 25.12902832 39.18920898 C22.56511698 39.17889031 20.00130058 39.1509701 17.4375 39.125 C8.8059375 39.063125 8.8059375 39.063125 0 39 C0 26.13 0 13.26 0 0 Z " fill="none" transform="translate(528,455)"/>
<path d="M0 0 C14.20379002 -0.18719724 28.40738774 -0.32757547 42.61215973 -0.41449738 C49.20834686 -0.45621948 55.80370439 -0.51279678 62.39941406 -0.60351562 C68.7666792 -0.69054272 75.13314725 -0.73829653 81.5009613 -0.75901794 C83.92830451 -0.77378144 86.35560487 -0.80261217 88.78260803 -0.84584045 C92.18740526 -0.90406382 95.58892438 -0.91190684 98.99414062 -0.90820312 C100.49386917 -0.95134644 100.49386917 -0.95134644 102.02389526 -0.99536133 C107.64317864 -0.92937794 110.56611427 -0.07293313 114.68786621 3.8692627 C118 7.47137204 118 7.47137204 118 11 C76.75 11 35.5 11 -7 11 C-7.33 10.01 -7.66 9.02 -8 8 C-7.50628906 7.59007812 -7.01257813 7.18015625 -6.50390625 6.7578125 C-5.86324219 6.21898437 -5.22257812 5.68015625 -4.5625 5.125 C-3.92441406 4.59132813 -3.28632813 4.05765625 -2.62890625 3.5078125 C-0.89194996 2.0777243 -0.89194996 2.0777243 0 0 Z " fill="#FFFFFF" transform="translate(268,585)"/>
<path d="M0 0 C0.66502543 20.29559102 0.66502543 20.29559102 -5.875 27.375 C-10.69296892 32.08765812 -16.04058992 32.3638846 -22.4375 32.375 C-23.17548828 32.39949219 -23.91347656 32.42398438 -24.67382812 32.44921875 C-29.88953222 32.47703584 -32.91490925 31.51206897 -37 28 C-39.71870271 23.99307479 -39.87496364 19.67435533 -39 15 C-36.82171721 10.68484663 -33.69336708 7.950658 -29.1875 6.25 C-23.90523516 4.77818946 -18.44102526 3.93819048 -13.02807617 3.08886719 C-8.70239359 2.39517691 -4.24549449 0 0 0 Z " fill="none" transform="translate(916,521)"/>
<path d="M0 0 C6.59760174 4.21123516 9.19221403 9.42560865 10.9375 16.875 C10.9375 17.865 10.9375 18.855 10.9375 19.875 C-3.5825 19.875 -18.1025 19.875 -33.0625 19.875 C-31.98224257 11.23294058 -30.75211086 6.75289647 -23.9375 1.4375 C-17.13171702 -2.2612951 -7.32299166 -2.76032945 0 0 Z " fill="none" transform="translate(689.0625,489.125)"/>
<path d="M0 0 C3.47914941 -0.02887814 6.95826831 -0.04675687 10.4375 -0.0625 C11.92733398 -0.07506836 11.92733398 -0.07506836 13.44726562 -0.08789062 C14.39150391 -0.09111328 15.33574219 -0.09433594 16.30859375 -0.09765625 C17.62041626 -0.10551147 17.62041626 -0.10551147 18.95874023 -0.11352539 C21 0 21 0 22 1 C22.125 4.5 22.125 4.5 22 8 C21 9 21 9 18.95874023 9.11352539 C18.08419189 9.10828857 17.20964355 9.10305176 16.30859375 9.09765625 C15.36435547 9.09443359 14.42011719 9.09121094 13.44726562 9.08789062 C12.45404297 9.07951172 11.46082031 9.07113281 10.4375 9.0625 C9.44041016 9.05798828 8.44332031 9.05347656 7.41601562 9.04882812 C4.94395151 9.03700007 2.47200482 9.02051849 0 9 C0 6.03 0 3.06 0 0 Z " fill="none" transform="translate(314,560)"/>
<rect x="300" y="536" width="46" height="22" rx="6" fill="none" stroke="#60BEBD" stroke-width="6"/>
<rect x="264" y="562" width="118" height="14" rx="7" fill="none" stroke="#60BEBD" stroke-width="6"/>
</g>
</svg>
