<?xml version="1.0" encoding="UTF-8"?>
<svg version="1.1" xmlns="http://www.w3.org/2000/svg" width="1200" height="1200" viewBox="120 300 400 400">
  <rect width="1200" height="1200" fill="#000000"/>
  <path d="M0 0 C71.28 0 142.56 0 216 0 C216 46.53 216 93.06 216 141 C144.72 141 73.44 141 0 141 C0 94.47 0 47.94 0 0 Z " fill="#111111" transform="translate(215,403)"/>
  <path d="M0 0 C0.8319378 -0.00644889 1.6638756 -0.01289778 2.52102363 -0.0195421 C3.4349202 -0.01644489 4.34881677 -0.01334769 5.29040718 -0.01015663 C6.26132809 -0.01468774 7.232249 -0.01921886 8.23259175 -0.02388728 C11.50070079 -0.03659327 14.76864451 -0.03490692 18.03677559 -0.03325844 C20.37390547 -0.03923981 22.71103337 -0.04604444 25.04815865 -0.05361366 C31.40762855 -0.07132049 37.76704468 -0.07597101 44.12653685 -0.07724524 C49.42991238 -0.07914138 54.73327531 -0.08649561 60.03664601 -0.09358943 C71.83076285 -0.10924121 83.62485632 -0.11492575 95.41898261 -0.11357872 C96.48082529 -0.11345885 96.48082529 -0.11345885 97.56411934 -0.11333656 C98.2728776 -0.1132548 98.98163586 -0.11317304 99.71187164 -0.1130888 C111.19937694 -0.11227583 122.68675114 -0.13141531 134.17421852 -0.1596133 C145.9660264 -0.18833021 157.75777032 -0.20215425 169.54961407 -0.20042574 C176.17122723 -0.19976142 182.79271954 -0.2056598 189.41430473 -0.22678185 C195.64085907 -0.24610064 201.86712265 -0.24633217 208.09368706 -0.23174858 C210.38142507 -0.22965149 212.66918098 -0.23441457 214.9568882 -0.2464695 C218.07540508 -0.26184034 221.19290916 -0.25266742 224.31140327 -0.23720741 C225.2208384 -0.24749454 226.13027353 -0.25778167 227.0672673 -0.26838052 C231.22281583 -0.22272456 233.37130649 -0.09184494 236.96641922 2.16317368 C240.20339727 5.61902133 240.05623866 7.74762295 240.06833076 12.40427208 C240.07404091 13.71648232 240.07975105 15.02869255 240.08563423 16.38066673 C240.08687968 17.84360304 240.08800476 19.30653945 240.08902168 20.76947594 C240.09364891 22.30357038 240.09867344 23.83766366 240.10406685 25.3717556 C240.11720599 29.54766053 240.12363927 33.72354938 240.12807751 37.89947176 C240.13100706 40.50901348 240.13511174 43.11855078 240.13958168 45.72809029 C240.15326338 53.89411656 240.16292556 62.06013277 240.16678357 70.22616971 C240.17125985 79.64923737 240.1887849 89.07215965 240.21778417 98.49518311 C240.23942162 105.77936764 240.24948903 113.06351134 240.25082469 120.34772766 C240.25187166 124.69747493 240.25775578 129.04708568 240.2756443 133.39679909 C240.29215968 137.4925943 240.29426374 141.58815089 240.28550529 145.68396759 C240.28473665 147.18351888 240.28905482 148.68308318 240.29896355 150.18260193 C240.38904027 164.66956226 240.38904027 164.66956226 236.92788887 171.25726891 C233.00365333 173.87342593 229.69250828 173.52283805 225.1420002 173.48431969 C224.24423363 173.48461174 223.34646706 173.48490379 222.42149544 173.4852047 C219.45087238 173.48381016 216.48049942 173.46824305 213.50992012 173.45258141 C211.45154647 173.44885172 209.39317105 173.44600454 207.334795 173.44400597 C201.9145436 173.43636603 196.49439922 173.4167144 191.07419014 173.39459801 C185.54431799 173.37414737 180.01442856 173.36500592 174.4845295 173.35492516 C163.63226891 173.33346889 152.78008779 173.29932855 141.92788887 173.25726891 C141.92788887 176.22726891 141.92788887 179.19726891 141.92788887 182.25726891 C143.30339912 182.21799278 143.30339912 182.21799278 144.70669746 182.1779232 C148.15477821 182.09199311 151.60169882 182.0296836 155.05044746 181.9826107 C156.53435566 181.95768053 158.01814382 181.92372265 159.50161934 181.88007164 C169.96636823 181.58017155 178.0627582 182.29446603 186.36538887 189.31976891 C187.13882637 190.27883141 187.13882637 190.27883141 187.92788887 191.25726891 C188.73226387 192.21633141 188.73226387 192.21633141 189.55288887 193.19476891 C194.21482666 200.1876756 193.58389591 208.19658246 192.92788887 216.25726891 C191.82250707 220.27055852 190.03594891 222.47961901 186.58862495 224.89899254 C181.08802749 226.93992949 175.80333678 226.69108306 169.98111153 226.67719078 C168.67635368 226.68566032 167.37159584 226.69412987 166.02729988 226.70285606 C162.45899273 226.7250212 158.89091684 226.72800526 155.3225503 226.72610855 C152.33810336 226.72598861 149.353705 226.73456245 146.36927164 226.74288607 C139.32497548 226.76210241 132.28079781 226.76501055 125.23648262 226.75824547 C117.98247718 226.75160687 110.7289805 226.77446532 103.47507823 226.8115592 C97.23536371 226.84230275 90.99581246 226.85361119 84.75602376 226.84972239 C81.03445561 226.84765954 77.3132834 226.85306139 73.59178734 226.87761497 C69.43866994 226.90411252 65.28661988 226.89011898 61.13345528 226.87250328 C59.90929405 226.88576653 58.68513283 226.89902977 57.42387581 226.91269493 C50.41752962 226.84369987 45.22027408 226.13526629 39.92788887 221.25726891 C36.31763988 215.84189542 36.26363357 209.6151411 36.92788887 203.25726891 C39.15624332 195.12243278 44.22814498 188.82960328 51.06851387 184.07367516 C57.87436018 180.8304361 66.03804456 181.57273312 73.42788887 181.50726891 C75.02948319 181.4790741 76.63104792 181.44914183 78.23257637 181.41742516 C82.13096047 181.34397376 86.02899427 181.2941469 89.92788887 181.25726891 C89.92788887 178.94726891 89.92788887 176.63726891 89.92788887 174.25726891 C88.77388084 174.25140266 87.61987282 174.24553642 86.43089485 174.23949242 C75.557084 174.18228711 64.68347356 174.10953683 53.80986691 174.02155399 C48.21958354 173.97682067 42.62937355 173.93757095 37.03897285 173.91083336 C31.64423038 173.88483013 26.24976984 173.84444855 20.85520172 173.79408264 C18.7967568 173.77739381 16.7382631 173.76589211 14.67975998 173.759655 C11.79708084 173.75003598 8.91512628 173.72200266 6.0326252 173.68964195 C5.18098289 173.69107704 4.32934059 173.69251213 3.45189095 173.69399071 C-1.17183064 173.62055055 -4.38068514 173.35084054 -8.07211113 170.25726891 C-10.32956275 166.80176885 -10.32562092 163.84271976 -10.33280754 159.77364159 C-10.33663309 159.12446689 -10.34045864 158.4752922 -10.34440011 157.80644554 C-10.35471141 155.63315108 -10.35074161 153.46012174 -10.34676933 151.28680992 C-10.35111684 149.72784747 -10.35630013 148.16888717 -10.362257 146.60993004 C-10.37565392 142.37647107 -10.37622492 138.14310133 -10.3736937 133.90962529 C-10.37262448 130.37575178 -10.3775061 126.84189637 -10.38229913 123.30802673 C-10.39339666 114.97135087 -10.3938303 106.63472007 -10.38778496 98.29804039 C-10.38174367 89.69677284 -10.39405951 81.09566882 -10.41535503 72.49442917 C-10.43296576 65.11003214 -10.43897323 57.72568717 -10.43571728 50.34126991 C-10.43390347 45.93073801 -10.43655037 41.52032277 -10.45043182 37.10980988 C-10.46299702 32.96227466 -10.46107857 28.81499455 -10.44802094 24.6674633 C-10.44565276 23.14569259 -10.4483985 21.623904 -10.45664406 20.10215378 C-10.4670933 18.0237659 -10.45902664 15.94623686 -10.44633293 13.86787987 C-10.44650067 12.70516343 -10.44666842 11.54244699 -10.44684124 10.34449673 C-10.02606943 6.87795269 -9.16034754 5.03282762 -7.07211113 2.25726891 C-4.01894273 0.22182331 -3.4296216 0.00671891 0 0 Z M6.92788887 16.25726891 C6.92788887 62.78726891 6.92788887 109.31726891 6.92788887 157.25726891 C78.20788887 157.25726891 149.48788887 157.25726891 222.92788887 157.25726891 C222.92788887 110.72726891 222.92788887 64.19726891 222.92788887 16.25726891 C151.64788887 16.25726891 80.36788887 16.25726891 6.92788887 16.25726891 Z " fill="#60BEBD" transform="translate(208.07211112976074,386.74273109436035)"/>
  <path d="M0 0 C14.20379002 -0.18719724 28.40738774 -0.32757547 42.61215973 -0.41449738 C49.20834686 -0.45621948 55.80370439 -0.51279678 62.39941406 -0.60351562 C68.7666792 -0.69054272 75.13314725 -0.73829653 81.5009613 -0.75901794 C83.92830451 -0.77378144 86.35560487 -0.80261217 88.78260803 -0.84584045 C92.18740526 -0.90406382 95.58892438 -0.91190684 98.99414062 -0.90820312 C100.49386917 -0.95134644 100.49386917 -0.95134644 102.02389526 -0.99536133 C107.64317864 -0.92937794 110.56611427 -0.07293313 114.68786621 3.8692627 C118 7.47137204 118 7.47137204 118 11 C76.75 11 35.5 11 -7 11 C-7.33 10.01 -7.66 9.02 -8 8 C-7.50628906 7.59007812 -7.01257813 7.18015625 -6.50390625 6.7578125 C-5.86324219 6.21898437 -5.22257812 5.68015625 -4.5625 5.125 C-3.92441406 4.59132813 -3.28632813 4.05765625 -2.62890625 3.5078125 C-0.89194996 2.0777243 -0.89194996 2.0777243 0 0 Z " fill="#141919" transform="translate(268,585)"/>
  <path d="M0 0 C3.47914941 -0.02887814 6.95826831 -0.04675687 10.4375 -0.0625 C11.92733398 -0.07506836 11.92733398 -0.07506836 13.44726562 -0.08789062 C14.39150391 -0.09111328 15.33574219 -0.09433594 16.30859375 -0.09765625 C17.62041626 -0.10551147 17.62041626 -0.10551147 18.95874023 -0.11352539 C21 0 21 0 22 1 C22.125 4.5 22.125 4.5 22 8 C21 9 21 9 18.95874023 9.11352539 C18.08419189 9.10828857 17.20964355 9.10305176 16.30859375 9.09765625 C15.36435547 9.09443359 14.42011719 9.09121094 13.44726562 9.08789062 C12.45404297 9.07951172 11.46082031 9.07113281 10.4375 9.0625 C9.44041016 9.05798828 8.44332031 9.05347656 7.41601562 9.04882812 C4.94395151 9.03700007 2.47200482 9.02051849 0 9 C0 6.03 0 3.06 0 0 Z " fill="none" transform="translate(314,560)"/>
</svg>
